<?xml version="1.0" standalone="no"?>
<!DOCTYPE svg PUBLIC "-//W3C//DTD SVG 20010904//EN"
 "http://www.w3.org/TR/2001/REC-SVG-20010904/DTD/svg10.dtd">
<svg version="1.0" xmlns="http://www.w3.org/2000/svg"
 width="1024.000000pt" height="960.000000pt" viewBox="0 0 1024.000000 960.000000"
 preserveAspectRatio="xMidYMid meet">
<metadata>
Created by potrace 1.16, written by Peter Selinger 2001-2019
</metadata>
<g transform="translate(0.000000,960.000000) scale(0.142222,-0.157895)"
fill="#000000" stroke="none">
<path d="M2545 5443 c-50 -13 -89 -76 -79 -128 3 -19 9 -35 13 -35 3 0 12 -9
19 -21 11 -18 9 -27 -17 -70 -17 -27 -27 -49 -23 -49 4 0 18 20 31 45 20 37
29 45 52 45 15 0 30 -4 34 -10 3 -5 22 2 42 16 40 27 33 29 115 -35 37 -29 35
-26 -10 15 -47 45 -65 74 -44 74 5 0 5 23 2 51 -10 76 -67 120 -135 102z"/>
<path d="M2963 5001 c55 -51 119 -108 176 -157 19 -16 48 -41 64 -55 l30 -26
-84 -41 c-143 -69 -328 -193 -431 -288 -20 -19 -39 -34 -41 -34 -5 0 -11 58
-33 295 -8 88 -20 201 -28 250 l-14 90 5 -110 c2 -60 13 -211 24 -334 l20
-225 -48 -50 c-26 -28 -50 -53 -53 -56 -3 -3 -38 -48 -77 -100 -76 -100 -175
-262 -195 -317 l-12 -33 -146 0 -145 0 3 -207 c3 -228 8 -215 -57 -156 l-24
21 27 45 c44 76 35 180 -22 241 -38 40 -81 56 -157 56 -59 0 -80 9 -56 24 7 5
121 192 141 231 3 6 12 21 21 35 99 152 305 520 291 520 -4 0 -18 -21 -32 -47
-14 -26 -49 -83 -79 -128 -77 -114 -339 -554 -353 -591 -11 -31 -13 -32 -94
-39 l-82 -7 -4 -48 c-1 -27 -2 -159 0 -294 l3 -246 60 0 59 0 0 106 0 105 36
-3 36 -3 59 -160 c33 -88 58 -171 57 -185 -2 -16 2 -24 10 -22 6 1 12 -2 12
-8 0 -5 -4 -10 -10 -10 -6 0 -10 -36 -10 -89 0 -80 2 -89 20 -94 19 -5 20 0
20 61 0 47 3 63 10 52 5 -8 10 -26 10 -40 0 -14 7 -35 15 -48 9 -12 24 -45 34
-74 20 -58 85 -238 151 -418 137 -373 210 -578 210 -590 0 -7 -13 -28 -30 -47
-19 -21 -30 -45 -30 -64 0 -123 161 -163 214 -53 13 28 20 33 43 29 16 -2 72
-7 127 -10 l98 -6 77 -65 c164 -141 268 -169 616 -169 166 1 219 4 315 23 129
26 299 78 397 122 89 41 173 42 206 4 53 -62 122 -67 174 -12 25 26 28 36 26
90 -1 50 3 67 21 92 13 17 32 45 42 61 16 25 16 28 2 17 -9 -8 -31 -36 -49
-63 -38 -60 -58 -52 -28 12 23 50 99 125 110 108 3 -6 23 12 45 42 21 28 70
90 109 136 90 104 168 220 233 345 28 53 63 114 77 136 14 22 23 46 19 55 -3
9 6 49 19 89 14 40 31 99 38 131 11 50 15 57 36 57 24 0 25 1 20 73 -2 39 -6
79 -7 87 -2 8 -2 57 -2 108 l2 92 49 0 c55 0 59 5 53 72 l-4 38 -50 0 -50 0 4
60 c1 33 0 61 -5 63 -4 1 -13 38 -21 82 -51 290 -170 563 -346 795 -32 42 -65
81 -73 89 -9 7 -19 29 -23 48 -4 24 -9 31 -15 22 -6 -10 -27 5 -81 56 -63 61
-100 93 -177 153 -97 76 -333 198 -411 212 -102 19 -436 -16 -560 -59 -14 -5
-71 -23 -127 -41 l-103 -33 -52 45 c-46 39 -177 144 -260 208 -46 35 -39 22
15 -29z m638 -764 c140 -36 269 -91 269 -117 0 -9 11 -31 25 -50 13 -18 23
-36 21 -39 -8 -12 122 5 138 18 13 11 19 11 33 0 10 -8 26 -21 36 -29 11 -8
24 -19 31 -25 69 -61 232 -200 273 -233 l52 -43 -26 -67 c-28 -74 -143 -416
-143 -426 0 -3 29 -6 64 -6 l63 0 17 48 c10 26 19 53 22 60 2 8 33 12 108 12
l104 0 18 -60 19 -60 72 0 72 0 -40 113 c-21 61 -39 115 -39 119 0 4 12 -5 28
-19 15 -14 37 -32 50 -40 20 -14 22 -23 22 -94 l0 -79 47 0 c72 0 42 -14 -102
-49 -155 -38 -166 -41 -320 -87 -66 -19 -143 -39 -171 -44 -28 -4 -60 -14 -71
-21 -17 -10 -27 -9 -58 5 -55 26 -101 15 -122 -30 -22 -45 -33 -43 -33 6 0 33
-3 40 -20 40 -19 0 -20 -7 -20 -105 0 -89 -3 -107 -16 -112 -10 -4 -22 1 -29
10 -15 21 -45 22 -45 2 0 -23 37 -55 63 -55 45 1 61 25 65 100 2 39 7 70 11
70 4 0 12 -15 19 -33 11 -32 45 -57 77 -57 50 0 90 51 83 106 -2 15 2 29 10
31 6 3 12 -2 12 -10 0 -19 32 -47 66 -56 38 -10 45 -41 9 -41 -14 0 -28 7 -31
15 -6 15 -44 22 -44 8 1 -26 46 -53 87 -53 43 1 65 23 61 61 -3 30 -7 35 -50
47 -29 8 -48 19 -48 28 0 18 36 19 47 1 11 -18 41 -28 48 -17 3 5 1 18 -4 29
-10 17 -7 20 22 26 17 4 68 17 112 30 44 12 141 39 215 60 74 20 152 43 173
51 48 18 42 20 66 -20 20 -31 20 -38 9 -75 -10 -32 -18 -41 -35 -41 -12 0 -25
-5 -28 -10 -4 -7 -13 -6 -26 1 -12 6 -42 8 -75 3 l-54 -6 0 -84 c0 -77 2 -84
20 -84 18 0 20 7 20 59 0 66 18 93 48 74 12 -7 18 -27 20 -69 2 -32 7 -63 12
-68 5 -5 5 -16 -1 -25 -5 -9 -26 -61 -48 -116 -21 -55 -54 -138 -73 -185 -19
-47 -52 -129 -73 -184 -35 -88 -44 -103 -89 -139 -175 -138 -375 -213 -602
-224 -169 -9 -182 -5 -341 97 -76 50 -158 100 -182 111 -25 12 -110 65 -190
117 -147 96 -187 122 -317 205 l-72 45 11 41 c10 37 15 42 62 56 27 9 64 20
80 25 17 5 57 16 90 24 33 8 85 21 115 29 30 8 100 27 155 42 165 45 191 53
175 54 -21 1 -191 -44 -550 -143 -129 -36 -123 -36 -140 3 -11 28 -9 33 39 97
52 68 91 105 91 85 0 -6 9 -11 19 -11 16 0 20 9 23 58 6 76 -11 109 -59 118
-20 4 -49 2 -65 -4 -15 -5 -30 -7 -33 -3 -2 4 -25 8 -50 9 l-45 0 0 -89 c0
-82 2 -89 20 -89 16 0 19 8 22 61 2 48 7 64 22 73 14 8 20 8 23 -1 6 -18 38
-16 53 3 16 19 65 15 65 -6 0 -9 -16 -17 -45 -22 -46 -8 -70 -28 -70 -58 0
-20 28 -46 53 -51 18 -4 18 -5 0 -24 -10 -11 -32 -38 -48 -60 -40 -53 -41 -54
-83 -40 -35 12 -37 16 -43 67 -3 29 -2 55 3 56 15 7 9 136 -8 160 -11 15 -19
62 -26 135 -11 130 -18 181 -23 175 -5 -5 14 -247 21 -270 4 -15 -1 -18 -33
-18 -42 0 -83 -23 -83 -46 0 -19 34 -18 50 1 18 22 60 20 60 -4 0 -14 -10 -20
-42 -24 -62 -8 -88 -55 -51 -92 13 -13 27 -16 60 -11 39 5 45 3 52 -17 5 -12
8 -42 7 -66 -1 -39 -5 -47 -32 -63 l-30 -18 -74 68 c-40 37 -80 71 -88 76 -12
7 -8 11 19 20 42 14 61 49 55 101 -6 49 -38 79 -76 70 -14 -3 -37 -6 -52 -5
-27 0 -28 -1 -28 -55 l0 -55 -55 52 c-48 45 -55 56 -55 89 0 20 -4 39 -10 41
-5 2 -12 29 -16 61 l-7 57 37 0 36 0 0 190 c0 179 1 192 24 245 l25 55 65 0
66 0 0 50 0 50 -36 0 -36 0 37 48 c48 59 107 122 116 122 3 0 11 -28 17 -62
l11 -63 -5 70 c-5 67 -3 72 23 96 109 102 328 201 508 230 71 11 299 2 366
-14z m586 -173 c77 -16 178 -49 243 -81 149 -73 322 -223 413 -360 47 -70 48
-72 45 -142 l-3 -70 -35 31 c-19 17 -45 37 -56 45 -20 13 -36 50 -107 248
l-25 70 -76 3 -76 3 -13 -32 -13 -32 -109 92 c-234 196 -286 241 -275 241 6 0
45 -7 87 -16z m-2067 -309 l0 -45 49 0 49 0 -34 -105 c-18 -57 -42 -151 -54
-207 -12 -57 -23 -107 -25 -113 -2 -5 -4 108 -4 253 -1 168 3 262 9 262 6 0
10 -20 10 -45z m2504 -219 c14 -46 26 -87 26 -90 0 -3 -31 -6 -69 -6 l-68 0
30 100 c36 117 43 117 81 -4z m-2696 -132 l52 -47 0 -71 0 -71 63 3 63 4 -10
-91 c-5 -50 -13 -91 -17 -91 -5 0 -18 -9 -29 -20 l-20 -20 0 53 c0 46 -3 53
-20 53 -16 0 -20 -7 -20 -38 0 -36 0 -37 -35 -31 -23 4 -43 0 -58 -10 -23 -15
-23 -14 -37 32 -7 25 -16 51 -20 56 -9 13 -110 293 -110 305 0 6 19 10 43 11
23 0 51 4 62 9 33 14 38 12 93 -36z m172 -423 c0 -5 -13 -14 -30 -21 -24 -10
-30 -18 -30 -44 0 -36 15 -56 41 -56 19 0 23 -14 39 -125 31 -227 142 -516
277 -722 l54 -81 -33 -66 c-31 -64 -34 -66 -69 -66 -35 0 -38 3 -52 43 -25 71
-92 255 -142 392 -96 265 -138 381 -145 405 -5 14 -24 69 -44 123 l-35 97 25
0 c13 0 24 6 25 13 0 10 2 10 6 0 2 -7 14 -13 26 -13 20 0 22 4 19 59 -4 59
-3 60 25 64 15 2 31 5 36 6 4 0 7 -3 7 -8z m343 -32 l47 -41 0 -64 c0 -57 2
-64 20 -64 17 0 20 7 20 47 l0 46 63 -59 c34 -32 79 -73 98 -90 35 -31 36 -34
31 -84 -4 -42 -1 -57 17 -80 26 -36 26 -44 0 -87 l-22 -35 -64 64 c-109 108
-197 250 -248 402 -14 41 -25 77 -25 80 0 13 18 4 63 -35z m2559 -46 c5 -89
-18 -188 -72 -308 -48 -107 -190 -308 -206 -292 -3 3 1 18 9 34 24 45 247 615
247 630 0 7 4 13 9 13 5 0 11 -35 13 -77z m-1972 -429 c231 -146 393 -252 423
-275 37 -29 187 -127 212 -138 11 -6 34 -21 50 -35 l30 -25 -60 18 c-95 28
-199 75 -282 127 -65 40 -88 49 -162 60 -163 24 -335 92 -454 180 -42 31 -48
39 -42 61 13 55 34 73 84 73 25 0 55 7 65 15 17 13 22 13 40 1 12 -8 55 -36
96 -62z m-520 -619 c17 -22 59 -68 92 -103 34 -34 59 -64 57 -66 -2 -1 -48 -1
-101 2 l-98 4 -26 47 -26 46 23 45 c24 48 40 72 45 68 1 -2 16 -21 34 -43z"/>
<path d="M3778 3855 c-22 -29 -41 -44 -55 -45 l-23 0 0 -295 0 -295 55 0 55 0
1 198 c0 224 -6 228 70 -45 l42 -153 62 0 63 0 22 83 c12 45 37 134 55 197
l34 115 0 -197 1 -198 60 0 60 0 0 298 0 297 -90 -3 -89 -3 -9 -32 c-5 -18
-28 -112 -52 -209 -24 -97 -47 -175 -50 -173 -3 2 -28 96 -55 209 l-50 206
-62 0 c-58 0 -78 10 -53 25 12 7 53 65 46 65 -3 0 -20 -20 -38 -45z"/>
<path d="M2615 3673 c-27 -76 -72 -205 -102 -286 -29 -81 -53 -152 -53 -157 0
-6 29 -10 63 -10 l64 0 18 60 18 60 112 0 112 0 17 -60 17 -60 65 0 c35 0 64
3 64 6 0 7 -120 351 -173 497 l-31 87 -72 0 -72 0 -47 -137z"/>
<path d="M3040 3515 l0 -294 119 -3 119 -3 -41 -55 c-23 -30 -61 -79 -85 -108
-23 -30 -42 -59 -42 -65 0 -6 19 15 43 47 l42 58 5 -102 c5 -112 16 -130 72
-130 41 0 68 32 68 80 0 33 -3 40 -19 40 -16 0 -20 -8 -23 -37 -3 -33 -6 -38
-28 -38 -23 0 -25 4 -28 53 l-3 52 50 0 c39 0 51 4 51 15 0 11 -12 15 -50 15
-46 0 -50 2 -50 24 0 17 -6 26 -20 28 -19 3 -16 9 27 66 l48 62 77 0 78 0 0
55 0 55 -145 0 -145 0 0 240 0 240 -60 0 -60 0 0 -295z"/>
<path d="M3788 2988 c-2 -66 -7 -113 -13 -114 -36 -2 -137 -28 -141 -36 -4 -6
3 -7 17 -3 50 16 95 25 136 25 l42 0 3 61 c3 65 19 88 52 76 12 -5 16 -20 16
-72 0 -58 2 -65 20 -65 18 0 20 7 20 73 0 59 -4 77 -18 90 -21 19 -45 21 -73
7 -17 -10 -19 -7 -19 30 0 33 -3 40 -20 40 -18 0 -20 -8 -22 -112z"/>
<path d="M3360 2970 c0 -57 4 -74 20 -90 22 -22 42 -25 71 -10 13 7 19 7 19 0
0 -5 9 -10 20 -10 19 0 20 7 20 90 0 83 -2 90 -20 90 -16 0 -19 -8 -22 -61 -3
-65 -19 -88 -52 -76 -12 5 -16 20 -16 72 0 58 -2 65 -20 65 -18 0 -20 -7 -20
-70z"/>
<path d="M3552 3024 c-43 -30 -18 -76 52 -95 42 -12 43 -32 3 -37 -18 -2 -29
2 -33 12 -6 16 -44 23 -44 9 1 -25 45 -53 82 -53 34 0 68 27 68 54 0 28 -13
39 -62 55 -21 7 -38 19 -38 27 0 19 39 18 46 -1 8 -19 44 -20 44 -1 0 20 -39
46 -70 46 -14 0 -36 -7 -48 -16z"/>
<path d="M4530 2968 c0 -52 4 -76 17 -90 15 -17 15 -18 0 -18 -23 0 -22 -42 1
-63 26 -24 83 -22 110 3 20 19 22 31 22 130 0 102 -1 110 -20 110 -17 0 -19
-8 -22 -66 -2 -49 -7 -70 -20 -77 -31 -20 -48 8 -48 79 0 57 -2 64 -20 64 -18
0 -20 -7 -20 -72z"/>
<path d="M4585 5012 c-24 -5 -75 -51 -75 -68 0 -7 -6 -14 -12 -17 -10 -4 -10
-7 0 -18 6 -7 12 -21 12 -32 0 -30 54 -77 89 -77 18 0 34 -7 40 -17 10 -17 10
-17 11 0 0 10 7 20 15 23 22 9 55 68 55 100 0 42 -34 92 -67 100 -15 3 -32 7
-38 8 -5 1 -19 0 -30 -2z"/>
<path d="M5408 3904 c-2 -2 -18 -4 -36 -6 -27 -2 -34 -9 -51 -48 -19 -45 -19
-81 1 -106 5 -7 8 -119 8 -250 0 -132 -1 -247 0 -256 0 -16 11 -18 95 -18 74
0 95 -3 95 -14 0 -31 105 -35 143 -6 14 11 37 20 51 20 25 0 26 2 26 55 0 48
-3 55 -19 55 -11 0 -33 14 -49 30 -17 17 -39 30 -49 31 -10 0 -29 2 -43 3 -17
2 -35 -7 -58 -30 -18 -19 -42 -34 -52 -34 -19 0 -20 8 -20 174 l0 174 35 42
c41 49 45 88 15 138 -11 17 -21 32 -22 32 -2 0 -17 4 -35 9 -17 5 -33 7 -35 5z"/>
<path d="M596 3810 c-63 -25 -110 -70 -143 -140 -23 -48 -27 -68 -27 -155 -1
-88 2 -107 25 -156 15 -31 39 -68 55 -83 96 -91 247 -100 350 -21 40 31 81 98
86 140 l3 30 -55 0 c-54 0 -55 -1 -73 -38 -52 -112 -206 -101 -250 18 -25 65
-20 184 9 241 50 98 194 97 241 -1 16 -34 18 -35 76 -35 l60 0 -7 32 c-29 145
-199 227 -350 168z"/>
<path d="M6428 3816 c-62 -23 -89 -45 -110 -93 -14 -33 -19 -59 -15 -91 9 -86
66 -128 215 -163 105 -24 142 -47 142 -87 -1 -52 -45 -82 -123 -82 -52 0 -105
31 -120 70 -11 29 -14 30 -70 30 l-59 0 7 -37 c4 -21 14 -50 23 -66 68 -115
321 -130 419 -25 62 66 56 183 -12 236 -25 20 -61 33 -239 85 -51 16 -81 54
-67 88 21 57 153 67 198 15 13 -15 23 -34 23 -42 0 -11 15 -14 61 -14 l62 0
-7 32 c-11 53 -51 104 -102 128 -59 29 -172 37 -226 16z"/>
<path d="M1117 3793 c-3 -10 -48 -139 -101 -288 -53 -148 -96 -274 -96 -278 0
-4 28 -7 62 -5 l62 3 20 58 21 57 110 0 110 0 18 -60 17 -60 65 0 c36 0 65 3
65 6 0 6 -69 205 -172 497 l-31 87 -72 0 c-61 0 -74 -3 -78 -17z m81 -351
c-39 -2 -73 -1 -75 2 -5 5 22 95 55 186 l16 45 37 -115 36 -115 -69 -3z"/>
<path d="M5866 3538 c-54 -150 -100 -283 -103 -295 -5 -22 -3 -23 59 -23 l65
0 18 60 18 60 111 0 112 0 17 -60 18 -60 65 0 c35 0 64 4 64 9 0 9 -64 192
-95 271 -7 19 -35 97 -61 173 l-48 137 -71 0 -71 0 -98 -272z m207 16 l34
-109 -70 -3 c-38 -2 -72 -1 -74 2 -3 3 9 49 27 103 17 54 34 104 36 112 7 22
12 11 47 -105z"/>
<path d="M985 3085 c-29 -28 -32 -66 -7 -87 9 -9 39 -22 67 -30 34 -9 51 -20
53 -32 8 -38 -68 -51 -90 -16 -15 23 -48 27 -48 6 0 -31 36 -58 82 -63 40 -5
50 -2 72 20 50 50 30 100 -49 122 -61 18 -73 29 -55 50 18 21 50 18 77 -7 29
-27 52 -13 33 21 -24 45 -98 54 -135 16z"/>
<path d="M5760 2995 c0 -108 14 -135 70 -135 43 0 70 31 70 80 0 33 -3 40 -19
40 -16 0 -20 -8 -23 -37 -3 -33 -6 -38 -28 -38 -23 0 -25 4 -28 53 l-3 52 50
0 c39 0 51 4 51 15 0 11 -12 15 -50 15 -47 0 -50 2 -50 25 0 18 -5 25 -20 25
-19 0 -20 -7 -20 -95z"/>
<path d="M5410 3024 c-13 -33 -13 -86 0 -118 18 -48 86 -59 124 -20 37 36 2
62 -36 27 -27 -24 -53 -6 -53 37 0 43 26 61 53 37 27 -25 54 -22 50 5 -4 31
-45 50 -91 43 -25 -4 -36 -2 -32 5 3 5 4 10 0 10 -3 0 -10 -12 -15 -26z"/>
<path d="M1189 3021 c-20 -16 -24 -29 -24 -70 0 -59 15 -79 67 -88 31 -4 41
-1 65 23 25 25 26 29 9 32 -10 2 -23 -1 -29 -7 -22 -22 -77 -6 -77 21 0 4 28
8 61 8 l62 0 -7 33 c-12 62 -79 87 -127 48z"/>
<path d="M1383 3028 c-53 -26 -54 -128 -1 -158 22 -12 33 -12 58 -3 26 10 30
9 30 -6 0 -38 -55 -56 -80 -26 -14 17 -50 20 -50 5 0 -6 12 -23 26 -37 22 -22
32 -25 67 -20 66 9 77 31 77 148 l0 99 -27 0 c-16 -1 -39 1 -53 4 -14 3 -35 0
-47 -6z"/>
<path d="M1530 2970 c0 -57 4 -74 20 -90 22 -22 60 -26 78 -8 9 9 12 9 12 0 0
-7 9 -12 20 -12 19 0 20 7 20 90 0 83 -1 90 -20 90 -18 0 -20 -7 -20 -53 0
-41 -5 -58 -20 -72 -35 -31 -50 -13 -50 60 0 58 -2 65 -20 65 -18 0 -20 -7
-20 -70z"/>
<path d="M5252 3024 c-41 -28 -18 -76 44 -93 16 -4 29 -14 29 -22 0 -20 -44
-24 -51 -5 -6 16 -44 23 -44 8 0 -22 30 -44 67 -49 33 -4 45 -1 62 16 40 40
27 69 -39 91 -47 16 -57 32 -25 39 10 2 24 -4 31 -14 7 -10 22 -15 38 -13 l26
3 -25 28 c-30 31 -77 36 -113 11z"/>
<path d="M5617 3033 c-20 -5 -47 -52 -47 -83 0 -39 28 -78 60 -85 81 -18 135
58 95 134 -18 36 -56 48 -108 34z"/>
<path d="M5933 3025 c-13 -9 -23 -23 -23 -31 0 -19 34 -18 50 2 16 19 65 15
65 -6 0 -9 -16 -17 -45 -22 -25 -4 -51 -15 -57 -25 -40 -53 25 -106 88 -73 13
7 19 7 19 0 0 -5 9 -10 20 -10 18 0 20 7 20 68 0 40 -5 75 -13 86 -19 25 -95
32 -124 11z"/>
<path d="M6112 3024 c-43 -30 -18 -76 52 -95 42 -12 43 -32 3 -37 -18 -2 -29
2 -33 12 -6 16 -44 23 -44 8 0 -21 29 -43 62 -49 47 -7 88 17 88 51 0 28 -13
39 -62 55 -21 7 -38 19 -38 27 0 19 39 18 46 -1 8 -19 44 -20 44 -1 0 20 -39
46 -70 46 -14 0 -36 -7 -48 -16z"/>
</g>
</svg>
